<svg xmlns="http://www.w3.org/2000/svg" xmlns:xlink="http://www.w3.org/1999/xlink" viewBox="0 0 230.58 48.55"><defs><style>.a{fill:none;clip-rule:evenodd;}.b{fill:#f58220;}.b,.d{fill-rule:evenodd;}.c{clip-path:url(#a);}.d,.e{fill:#fff;}</style><clipPath id="a" transform="translate(0 1.93)"><path class="a" d="M23.27,0A23.31,23.31,0,1,1,0,23.31,23.29,23.29,0,0,1,23.27,0Z"/></clipPath></defs><path class="b" d="M23.27,0A23.31,23.31,0,1,1,0,23.31,23.29,23.29,0,0,1,23.27,0Z" transform="translate(0 1.93)"/><g class="c"><path class="d" d="M8.8,27.9c0,6.33,3.9,10.7,10.59,13.67V-1.93L8.8-1.79V27.9ZM23.11,24V14.3c18.28-3.05,24.88,26.34.08,27.25V32.12c8.1.51,8.64-9.07-.08-8.09Z" transform="translate(0 1.93)"/></g><path class="e" d="M92.7,9.24a1,1,0,0,0-1.11-.78H87a1,1,0,0,0-1.11.78l-8,28.13c-.13.52,0,.79.46.79h3.32c.43,0,.71-.27.83-.79l1.76-6H94.36l1.75,6a1.25,1.25,0,0,0,.26.62.8.8,0,0,0,.58.17h3.27c.47,0,.64-.27.51-.79ZM85.12,27.67l4.07-14.78h.18l4.11,14.78Z" transform="translate(0 1.93)"/><path class="e" d="M70.75,23a4.93,4.93,0,0,0,3.79-5.17V15.53a6.93,6.93,0,0,0-1.9-5.22,7.28,7.28,0,0,0-5.31-1.85H56.39a.69.69,0,0,0-.79.78V37.37a.7.7,0,0,0,.79.79H67.75A7.21,7.21,0,0,0,73,36.31a6.93,6.93,0,0,0,1.9-5.22v-3a5.29,5.29,0,0,0-1.18-3.6A4.68,4.68,0,0,0,70.75,23ZM60.08,12.75c0-.3.17-.46.51-.46h6.1q3.41,0,3.41,3.33v2.12q0,3.38-3.51,3.37h-6c-.34,0-.51-.15-.51-.46ZM70.52,31c0,2.21-1.16,3.32-3.46,3.32H60.59c-.34,0-.51-.15-.51-.46V25.27c0-.31.17-.46.51-.46h6.28q3.64,0,3.65,3.32Z" transform="translate(0 1.93)"/><path class="e" d="M116.26,8.46H110.9a7.15,7.15,0,0,0-5.29,1.87,7.19,7.19,0,0,0-1.87,5.29V31a7.18,7.18,0,0,0,1.87,5.26,7.12,7.12,0,0,0,5.29,1.9h5.36a7.11,7.11,0,0,0,5.26-1.9,7.07,7.07,0,0,0,1.9-5.26V28.78a.74.74,0,0,0-.83-.83h-2.91c-.53,0-.79.28-.79.83v2q0,3.42-3.32,3.42h-4q-3.33,0-3.33-3.42v-15c0-2.28,1.11-3.41,3.33-3.41h4c2.21,0,3.32,1.13,3.32,3.41v2c0,.55.26.83.79.83h2.91a.74.74,0,0,0,.83-.83V15.62a7.08,7.08,0,0,0-1.9-5.29A7.14,7.14,0,0,0,116.26,8.46Z" transform="translate(0 1.93)"/><path class="e" d="M140.75,9.24a1,1,0,0,0-1.11-.78H135a1,1,0,0,0-1.11.78l-8,28.13c-.12.52,0,.79.47.79h3.32c.43,0,.71-.27.83-.79l1.76-6h10.16l1.75,6a1.16,1.16,0,0,0,.26.62.78.78,0,0,0,.57.17h3.28c.47,0,.63-.27.51-.79Zm-7.58,18.43,4.07-14.78h.18l4.11,14.78Z" transform="translate(0 1.93)"/><path class="e" d="M190.13,8.46h-5.35a7.15,7.15,0,0,0-5.29,1.87,7.15,7.15,0,0,0-1.87,5.29V31a7.14,7.14,0,0,0,1.87,5.26,7.12,7.12,0,0,0,5.29,1.9h5.35a7.13,7.13,0,0,0,5.27-1.9A7.1,7.1,0,0,0,197.29,31V28.78a.73.73,0,0,0-.83-.83h-2.91c-.52,0-.78.28-.78.83v2q0,3.42-3.33,3.42h-4q-3.31,0-3.32-3.42v-15c0-2.28,1.11-3.41,3.32-3.41h4c2.22,0,3.33,1.13,3.33,3.41v2c0,.55.26.83.78.83h2.91a.73.73,0,0,0,.83-.83V15.62a7.12,7.12,0,0,0-1.89-5.29A7.16,7.16,0,0,0,190.13,8.46Z" transform="translate(0 1.93)"/><path class="e" d="M220.67,8.46H217c-.44,0-.74.26-.93.78L210.46,22h-.27L204.51,9.24q-.33-.78-.93-.78h-3.69a.62.62,0,0,0-.51.23.54.54,0,0,0,0,.6L208,27.16V37.37a.7.7,0,0,0,.78.79h3a.7.7,0,0,0,.78-.79V27.16l8.64-17.87a.56.56,0,0,0,0-.6A.61.61,0,0,0,220.67,8.46Z" transform="translate(0 1.93)"/><path class="e" d="M171.65,8.46h-2.86a.69.69,0,0,0-.79.78V29.06h-.18L156.64,9a1,1,0,0,0-1-.51H153a.7.7,0,0,0-.79.78V37.37a.7.7,0,0,0,.79.79h2.86a.7.7,0,0,0,.79-.79V17.56h.18L168,37.42a1.36,1.36,0,0,0,1.2.74h2.49a.7.7,0,0,0,.79-.79V9.24A.7.7,0,0,0,171.65,8.46Z" transform="translate(0 1.93)"/><path class="e" d="M228.33,11.9a1.28,1.28,0,0,0-.31-.24.89.89,0,0,0,.56-.26.75.75,0,0,0,.19-.53.84.84,0,0,0-.12-.45.71.71,0,0,0-.33-.27,2.12,2.12,0,0,0-.67-.08h-1.2v2.84H227V11.73h.12a1,1,0,0,1,.29,0,.44.44,0,0,1,.17.12,4,4,0,0,1,.3.41l.41.62H229l-.35-.55A2.6,2.6,0,0,0,228.33,11.9Zm-.88-.63H227v-.72h.87a.37.37,0,0,1,.21.12.32.32,0,0,1,.08.23.37.37,0,0,1-.06.21.28.28,0,0,1-.16.12A2.52,2.52,0,0,1,227.45,11.27Z" transform="translate(0 1.93)"/><path class="e" d="M227.56,8.47a3,3,0,1,0,3,3A3,3,0,0,0,227.56,8.47Zm0,5.38a2.36,2.36,0,1,1,2.36-2.36A2.36,2.36,0,0,1,227.56,13.85Z" transform="translate(0 1.93)"/></svg>